<svg width="28" height="28" viewBox="0 0 28 28" fill="none" xmlns="http://www.w3.org/2000/svg">
<g clip-path="url(#clip0_50_481)">
<path d="M10.5 4.66666H5.83335C5.18902 4.66666 4.66669 5.18899 4.66669 5.83332V10.5C4.66669 11.1443 5.18902 11.6667 5.83335 11.6667H10.5C11.1444 11.6667 11.6667 11.1443 11.6667 10.5V5.83332C11.6667 5.18899 11.1444 4.66666 10.5 4.66666Z" stroke="#999999" stroke-width="2" stroke-linecap="round" stroke-linejoin="round"/>
<path d="M22.1666 4.66666H17.5C16.8556 4.66666 16.3333 5.18899 16.3333 5.83332V10.5C16.3333 11.1443 16.8556 11.6667 17.5 11.6667H22.1666C22.811 11.6667 23.3333 11.1443 23.3333 10.5V5.83332C23.3333 5.18899 22.811 4.66666 22.1666 4.66666Z" stroke="#999999" stroke-width="2" stroke-linecap="round" stroke-linejoin="round"/>
<path d="M10.5 16.3333H5.83335C5.18902 16.3333 4.66669 16.8557 4.66669 17.5V22.1667C4.66669 22.811 5.18902 23.3333 5.83335 23.3333H10.5C11.1444 23.3333 11.6667 22.811 11.6667 22.1667V17.5C11.6667 16.8557 11.1444 16.3333 10.5 16.3333Z" stroke="#999999" stroke-width="2" stroke-linecap="round" stroke-linejoin="round"/>
<path d="M22.1666 16.3333H17.5C16.8556 16.3333 16.3333 16.8557 16.3333 17.5V22.1667C16.3333 22.811 16.8556 23.3333 17.5 23.3333H22.1666C22.811 23.3333 23.3333 22.811 23.3333 22.1667V17.5C23.3333 16.8557 22.811 16.3333 22.1666 16.3333Z" stroke="#999999" stroke-width="2" stroke-linecap="round" stroke-linejoin="round"/>
</g>
<defs>
<clipPath id="clip0_50_481">
<rect width="28" height="28" fill="white"/>
</clipPath>
</defs>
</svg>
