<svg width="30" height="74" viewBox="0 0 30 74" fill="none" xmlns="http://www.w3.org/2000/svg">
<path d="M21.2008 9.89334C22.1938 10.8903 22.7513 12.24 22.7513 13.6471C22.7513 15.0542 22.1938 16.4039 21.2008 17.4008L13 25.6667L4.79916 17.4008C4.06168 16.6584 3.55958 15.7149 3.35574 14.6884C3.15189 13.662 3.25535 12.5982 3.65316 11.6303C4.05097 10.6624 4.72546 9.83327 5.59219 9.24683C6.45892 8.66038 7.47938 8.34263 8.52583 8.33334C9.92511 8.34183 11.2644 8.90248 12.2525 9.89334C12.5407 10.1785 12.7918 10.4988 13 10.8467C13.2082 10.4988 13.4593 10.1785 13.7475 9.89334C14.2343 9.3994 14.8145 9.00717 15.4543 8.73945C16.094 8.47172 16.7806 8.33385 17.4742 8.33385C18.1677 8.33385 18.8543 8.47172 19.4941 8.73945C20.1338 9.00717 20.714 9.3994 21.2008 9.89334V9.89334Z" stroke="#161A1D" stroke-width="2" stroke-linecap="round" stroke-linejoin="round"/>
<rect x="16" width="14" height="14" rx="2" fill="#FCA311"/>
<path d="M25.2637 4.5498L22.4219 11H21.1768L24.0137 4.84277H20.3369V3.89062H25.2637V4.5498Z" fill="black"/>
</svg>
