<svg width="109" height="37" viewBox="0 0 109 37" fill="none" xmlns="http://www.w3.org/2000/svg">
<path d="M19.4486 11.0433V20.1282C19.4486 23.6441 17.4038 26.6645 14.4528 28.0567C13.6861 28.4107 12.8496 28.6702 11.9898 28.7882C11.6181 28.8354 11.223 28.859 10.8513 28.859C10.4563 28.859 10.0845 28.8354 9.68947 28.7882C8.82973 28.6702 7.99324 28.4343 7.22645 28.0567C4.27548 26.6645 2.23071 23.6441 2.23071 20.1282V11.0433H7.43557V20.7653C7.43557 20.8125 7.43557 20.8361 7.43557 20.8597V20.9305C7.43557 21.0012 7.43557 21.072 7.45881 21.1428C7.45881 21.2844 7.48205 21.4024 7.50528 21.5204C7.50528 21.5676 7.52852 21.6148 7.52852 21.662C7.85382 23.1958 9.17827 24.3756 10.8048 24.3992C10.8048 24.3992 10.8048 24.3992 10.828 24.3992H10.9442C10.9442 24.3992 10.9442 24.3992 10.9674 24.3992C12.5707 24.3756 13.8952 23.2194 14.2205 21.662C14.2205 21.6148 14.2437 21.5676 14.2437 21.5204C14.267 21.4024 14.2902 21.2844 14.2902 21.1428C14.3134 21.072 14.3134 21.0012 14.3134 20.9305V20.8833C14.3134 20.8361 14.3134 20.7889 14.3134 20.7417V11.0433H19.4486Z" fill="#161A1D"/>
<path d="M19.4485 9.08482L10.8512 5.3801L2.23065 9.08482L0 4.67219L10.8512 0L21.6792 4.67219L19.4485 9.08482Z" fill="#FCA311"/>
<path d="M35.063 24.0453V28.6231H32.3676C30.439 28.6231 28.9519 28.1512 27.8598 27.1837C26.791 26.2163 26.2566 24.6589 26.2566 22.5115V15.5268H24.1421V11.0434H26.2566V6.74878H31.5544V11.0434H35.0398V15.5268H31.5544V22.5823C31.5544 23.1015 31.6705 23.479 31.9261 23.715C32.1817 23.9509 32.5768 24.0689 33.1577 24.0689H35.063V24.0453Z" fill="#161A1D"/>
<path d="M42.9401 27.7736C41.5925 27.0421 40.5236 25.9802 39.7336 24.6116C38.9668 23.243 38.5718 21.6384 38.5718 19.8214C38.5718 18.0045 38.9668 16.4235 39.7568 15.0549C40.5468 13.6862 41.6157 12.6244 42.9866 11.8929C44.3575 11.1614 45.8911 10.7838 47.5873 10.7838C49.2836 10.7838 50.8171 11.1614 52.1881 11.8929C53.559 12.6244 54.6278 13.6862 55.4179 15.0549C56.2079 16.4235 56.6029 18.0281 56.6029 19.8214C56.6029 21.6384 56.2079 23.2194 55.4179 24.588C54.6278 25.9566 53.5357 27.0185 52.1648 27.75C50.7939 28.4815 49.2603 28.8591 47.5641 28.8591C45.8214 28.8827 44.3111 28.5051 42.9401 27.7736ZM50.1201 23.0778C50.8404 22.3227 51.1889 21.2373 51.1889 19.8214C51.1889 18.4056 50.8404 17.3438 50.1433 16.5651C49.4462 15.81 48.5865 15.4324 47.5873 15.4324C46.5417 15.4324 45.7052 15.81 45.0081 16.5415C44.3343 17.2966 43.9858 18.382 43.9858 19.7978C43.9858 21.2137 44.3111 22.2755 44.9849 23.0542C45.6587 23.8093 46.4952 24.1869 47.5176 24.1869C48.54 24.2105 49.3997 23.8329 50.1201 23.0778Z" fill="#161A1D"/>
<path d="M67.5471 11.5389C68.4533 11.0434 69.5221 10.7838 70.7536 10.7838C72.171 10.7838 73.4723 11.1614 74.6341 11.8929C75.7959 12.6244 76.7021 13.6862 77.3759 15.0549C78.0497 16.4235 78.375 18.0045 78.375 19.8214C78.375 21.6384 78.0497 23.2194 77.3759 24.588C76.7021 25.9566 75.7959 27.0185 74.6341 27.7736C73.4723 28.5287 72.1943 28.8827 70.7536 28.8827C69.5454 28.8827 68.4998 28.6231 67.5703 28.1276C66.6409 27.632 65.9206 26.9713 65.4094 26.169V37H60.1116V11.0434H65.4094V13.5211C65.9206 12.7188 66.6409 12.058 67.5471 11.5389ZM71.8922 16.6359C71.1487 15.8808 70.2425 15.4796 69.1736 15.4796C68.128 15.4796 67.2218 15.8808 66.4782 16.6359C65.7347 17.4146 65.3861 18.4764 65.3861 19.8214C65.3861 21.1665 65.7579 22.2283 66.4782 23.007C67.2218 23.7857 68.1047 24.1633 69.1736 24.1633C70.2192 24.1633 71.1254 23.7621 71.869 22.9834C72.6125 22.2047 72.9843 21.1193 72.9843 19.7742C72.9843 18.4528 72.6125 17.391 71.8922 16.6359Z" fill="#161A1D"/>
<path d="M91.7358 15.0313C92.4096 13.6627 93.3158 12.6244 94.4776 11.8693C95.6394 11.1378 96.9174 10.7603 98.358 10.7603C99.5895 10.7603 100.658 11.0198 101.565 11.5154C102.494 12.0109 103.191 12.6716 103.679 13.4975V11.0434H108.977V28.6231H103.679V26.1455C103.168 26.9713 102.448 27.6321 101.518 28.1276C100.589 28.6231 99.5198 28.8827 98.3115 28.8827C96.8942 28.8827 95.6162 28.5051 94.4544 27.7736C93.2926 27.0185 92.3864 25.9567 91.7125 24.5881C91.0387 23.2194 90.7134 21.6148 90.7134 19.8215C90.7366 18.0045 91.0619 16.3999 91.7358 15.0313ZM102.61 16.6595C101.867 15.8808 100.984 15.5032 99.9148 15.5032C98.846 15.5032 97.963 15.8808 97.2195 16.6595C96.4759 17.4382 96.1274 18.4765 96.1274 19.8215C96.1274 21.1665 96.4991 22.2284 97.2195 23.0307C97.963 23.8094 98.846 24.2105 99.9148 24.2105C100.984 24.2105 101.867 23.833 102.61 23.0543C103.354 22.2756 103.702 21.2137 103.702 19.8687C103.702 18.5 103.331 17.4382 102.61 16.6595Z" fill="#161A1D"/>
<path d="M81.9067 11.0435V28.6232H87.2045V11.0435H81.9067Z" fill="#161A1D"/>
<path d="M84.5556 9.22646C83.7889 9.22646 83.115 8.9669 82.5806 8.44776C82.0462 7.92863 81.7673 7.29151 81.7673 6.56001C81.7673 5.8285 82.0462 5.19139 82.6038 4.67225C83.1615 4.15312 83.8121 3.89355 84.5789 3.89355C85.3457 3.89355 86.0195 4.15312 86.5539 4.67225C87.1116 5.19139 87.3672 5.8285 87.3672 6.56001C87.3672 7.29151 87.0884 7.92863 86.5539 8.44776C85.9963 8.9669 85.3224 9.22646 84.5556 9.22646Z" fill="#161A1D"/>
</svg>
