<svg width="26" height="70" viewBox="0 0 26 70" fill="none" xmlns="http://www.w3.org/2000/svg">
<path d="M19.5 4.33334C19.7873 4.33334 20.0629 4.44748 20.2661 4.65064C20.4692 4.85381 20.5834 5.12936 20.5834 5.41668V21.6667C20.5834 21.954 20.4692 22.2295 20.2661 22.4327C20.0629 22.6359 19.7873 22.75 19.5 22.75H6.50002C6.2127 22.75 5.93715 22.6359 5.73399 22.4327C5.53082 22.2295 5.41669 21.954 5.41669 21.6667V5.41668C5.41669 5.12936 5.53082 4.85381 5.73399 4.65064C5.93715 4.44748 6.2127 4.33334 6.50002 4.33334" stroke="#161A1D" stroke-width="2" stroke-linecap="round" stroke-linejoin="round"/>
<path d="M15.1667 3.25H10.8333C10.235 3.25 9.75 3.73502 9.75 4.33333V5.41667C9.75 6.01498 10.235 6.5 10.8333 6.5H15.1667C15.765 6.5 16.25 6.01498 16.25 5.41667V4.33333C16.25 3.73502 15.765 3.25 15.1667 3.25Z" stroke="#161A1D" stroke-width="2" stroke-linecap="round" stroke-linejoin="round"/>
<path d="M9.75 11.9167H16.25" stroke="#161A1D" stroke-width="2" stroke-linecap="round" stroke-linejoin="round"/>
<path d="M9.75 16.25H16.25" stroke="#161A1D" stroke-width="2" stroke-linecap="round" stroke-linejoin="round"/>
</svg>
