<svg width="26" height="72" viewBox="0 0 26 72" fill="none" xmlns="http://www.w3.org/2000/svg">
<path d="M17.3333 7.58333C17.3333 8.44039 17.0792 9.27819 16.603 9.9908C16.1269 10.7034 15.4501 11.2588 14.6583 11.5868C13.8665 11.9148 12.9952 12.0006 12.1546 11.8334C11.314 11.6662 10.5419 11.2535 9.93585 10.6475C9.32982 10.0414 8.91711 9.26931 8.74991 8.42872C8.58271 7.58814 8.66852 6.71685 8.9965 5.92504C9.32448 5.13323 9.8799 4.45645 10.5925 3.9803C11.3051 3.50415 12.1429 3.25 13 3.25C14.1493 3.25 15.2515 3.70655 16.0641 4.5192C16.8768 5.33186 17.3333 6.43406 17.3333 7.58333ZM16.25 16.25H9.74998C8.31339 16.25 6.93564 16.8207 5.91982 17.8365C4.904 18.8523 4.33331 20.2301 4.33331 21.6667V21.6667C4.33331 21.954 4.44745 22.2295 4.65061 22.4327C4.85378 22.6359 5.12933 22.75 5.41665 22.75H20.5833C20.8706 22.75 21.1462 22.6359 21.3493 22.4327C21.5525 22.2295 21.6666 21.954 21.6666 21.6667C21.6666 20.2301 21.096 18.8523 20.0801 17.8365C19.0643 16.8207 17.6866 16.25 16.25 16.25Z" stroke="#161A1D" stroke-width="2" stroke-linecap="round" stroke-linejoin="round"/>
</svg>
